<svg width="64" height="64" viewBox="0 0 64 64" fill="none" xmlns="http://www.w3.org/2000/svg">
<path fill-rule="evenodd" clip-rule="evenodd" d="M53.4624 16.9376C54.0623 17.5377 54.3993 18.3515 54.3993 19.2C54.3993 20.0486 54.0623 20.8624 53.4624 21.4624L27.8624 47.0624C27.2623 47.6624 26.4485 47.9994 25.6 47.9994C24.7515 47.9994 23.9377 47.6624 23.3376 47.0624L10.5376 34.2624C9.95472 33.6589 9.63217 32.8506 9.63946 32.0116C9.64676 31.1725 9.9833 30.3699 10.5766 29.7766C11.1699 29.1833 11.9725 28.8468 12.8115 28.8395C13.6506 28.8322 14.4589 29.1547 15.0624 29.7376L25.6 40.2753L48.9376 16.9376C49.5377 16.3377 50.3515 16.0007 51.2 16.0007C52.0485 16.0007 52.8623 16.3377 53.4624 16.9376Z" fill="#31C48D"/>
</svg>
