<?xml version="1.0" encoding="UTF-8"?>
<!DOCTYPE svg PUBLIC "-//W3C//DTD SVG 1.1//EN" "http://www.w3.org/Graphics/SVG/1.1/DTD/svg11.dtd">
<svg xmlns="http://www.w3.org/2000/svg" version="1.1" width="31px" height="25px" style="shape-rendering:geometricPrecision; text-rendering:geometricPrecision; image-rendering:optimizeQuality; fill-rule:evenodd; clip-rule:evenodd" xmlns:xlink="http://www.w3.org/1999/xlink">
<g><path style="opacity:0.895" fill="#fefffe" d="M 30.5,10.5 C 30.5,14.1667 30.5,17.8333 30.5,21.5C 28.1815,21.9925 26.1815,22.9925 24.5,24.5C 23.5,24.5 22.5,24.5 21.5,24.5C 21.5858,23.5041 21.2524,22.6708 20.5,22C 16.8333,21.3333 13.1667,21.3333 9.5,22C 8.74756,22.6708 8.41423,23.5041 8.5,24.5C 7.5,24.5 6.5,24.5 5.5,24.5C 3.53684,23.1798 1.53684,21.8465 -0.5,20.5C -0.5,17.1667 -0.5,13.8333 -0.5,10.5C 0.787393,7.92521 2.12073,5.25855 3.5,2.5C 5.14585,1.34006 6.97919,0.673394 9,0.5C 14.3546,1.10817 19.6879,1.44151 25,1.5C 27.3625,4.23414 29.1958,7.23414 30.5,10.5 Z M 9.5,10.5 C 13.1844,12.2033 13.351,14.2033 10,16.5C 7.04797,14.5506 6.8813,12.5506 9.5,10.5 Z M 19.5,10.5 C 23.3428,11.9311 23.5094,13.9311 20,16.5C 16.8981,14.6627 16.7314,12.6627 19.5,10.5 Z"/></g>
</svg>
