<?xml version="1.0" encoding="UTF-8"?>
<!DOCTYPE svg PUBLIC "-//W3C//DTD SVG 1.1//EN" "http://www.w3.org/Graphics/SVG/1.1/DTD/svg11.dtd">
<svg xmlns="http://www.w3.org/2000/svg" version="1.1" width="24px" height="24px" style="shape-rendering:geometricPrecision; text-rendering:geometricPrecision; image-rendering:optimizeQuality; fill-rule:evenodd; clip-rule:evenodd" xmlns:xlink="http://www.w3.org/1999/xlink">
<g><path style="opacity:0.953" fill="#4b5463" d="M 10.5,1.5 C 11.4959,1.41423 12.3292,1.74756 13,2.5C 13.3143,4.86891 14.1476,7.03558 15.5,9C 12.8333,15 10.1667,15 7.5,9C 8.97188,6.65368 9.97188,4.15368 10.5,1.5 Z"/></g>
<g><path style="opacity:0.967" fill="#4a5462" d="M 3.5,2.5 C 5.66485,2.11589 7.33152,2.78256 8.5,4.5C 7.67504,5.38568 6.67504,5.71901 5.5,5.5C 5.5,8.16667 5.5,10.8333 5.5,13.5C 7.74683,13.9153 9.9135,14.5819 12,15.5C 13.8001,14.6216 15.6334,13.955 17.5,13.5C 17.5,10.8333 17.5,8.16667 17.5,5.5C 13.6975,5.10506 13.5309,4.10506 17,2.5C 17.8732,2.73546 18.7065,3.0688 19.5,3.5C 20.786,8.85563 20.786,14.189 19.5,19.5C 14.533,20.6623 9.53302,20.8289 4.5,20C 2.2015,14.4105 1.86816,8.57719 3.5,2.5 Z"/></g>
</svg>
