<?xml version="1.0" encoding="UTF-8"?>
<!DOCTYPE svg PUBLIC "-//W3C//DTD SVG 1.1//EN" "http://www.w3.org/Graphics/SVG/1.1/DTD/svg11.dtd">
<svg xmlns="http://www.w3.org/2000/svg" version="1.1" width="24px" height="20px" style="shape-rendering:geometricPrecision; text-rendering:geometricPrecision; image-rendering:optimizeQuality; fill-rule:evenodd; clip-rule:evenodd" xmlns:xlink="http://www.w3.org/1999/xlink">
<g><path style="opacity:0.951" fill="#9ba2ae" d="M 0.5,-0.5 C 7.83333,-0.5 15.1667,-0.5 22.5,-0.5C 22.5,0.166667 22.8333,0.5 23.5,0.5C 23.5,1.16667 23.5,1.83333 23.5,2.5C 15.5,3.83333 7.5,3.83333 -0.5,2.5C -0.5,1.83333 -0.5,1.16667 -0.5,0.5C 0.166667,0.5 0.5,0.166667 0.5,-0.5 Z"/></g>
<g><path style="opacity:0.951" fill="#9ba2ae" d="M 23.5,8.5 C 23.5,9.16667 23.5,9.83333 23.5,10.5C 15.5,11.8333 7.5,11.8333 -0.5,10.5C -0.5,9.83333 -0.5,9.16667 -0.5,8.5C 7.5,7.16667 15.5,7.16667 23.5,8.5 Z"/></g>
<g><path style="opacity:0.624" fill="#9ca1ae" d="M 0.5,16.5 C 4.63441,15.5151 8.96775,15.1818 13.5,15.5C 13.5,16.8333 13.5,18.1667 13.5,19.5C 13.1667,19.5 12.8333,19.5 12.5,19.5C 12.5,18.5 12.5,17.5 12.5,16.5C 8.5,16.5 4.5,16.5 0.5,16.5 Z"/></g>
<g><path style="opacity:0.954" fill="#9ba2ae" d="M -0.5,16.5 C -0.166667,16.5 0.166667,16.5 0.5,16.5C 4.5,16.5 8.5,16.5 12.5,16.5C 12.5,17.5 12.5,18.5 12.5,19.5C 8.5,19.5 4.5,19.5 0.5,19.5C 0.5,18.8333 0.166667,18.5 -0.5,18.5C -0.5,17.8333 -0.5,17.1667 -0.5,16.5 Z"/></g>
</svg>
